/* XPM */
static char * RB_128_xpm[] = {
"128 128 31 1",
" 	c #000000",
".	c #0D0D0D",
"+	c #131313",
"@	c #1A1A1A",
"#	c #262626",
"$	c #2C2C2C",
"%	c #323232",
"&	c #3B3B3B",
"*	c #434343",
"=	c #4B4B4B",
"-	c #515151",
";	c #5A5A5A",
">	c #626262",
",	c #6B6B6B",
"'	c #747474",
")	c #7C7C7C",
"!	c #838383",
"~	c #8A8A8A",
"{	c #949494",
"]	c #9C9C9C",
"^	c #A2A2A2",
"/	c #ABABAB",
"(	c #B3B3B3",
"_	c #BCBCBC",
":	c #C2C2C2",
"<	c #CBCBCB",
"[	c #D4D4D4",
"}	c #DCDCDC",
"|	c #E2E2E2",
"1	c #EBEBEB",
"2	c #FEFEFE",
"22222222222222222222222222222222222222222222222222222222222222222222222222222222222222222222222222222222222222222222222222222222",
"22222222222222222222222222222222222222222222222222222222222222222222222222222222222222222222222222222222222222222222222222222222",
"22222222222222222222222222222222222222222222222222222222222222222222222222222222222222222222222222222222222222222222222222222222",
"22222222222222222222222222222222222222222222222222222222222222222222222222222222222222222222222222222222222222222222222222222222",
"22222222222222222222222222222222222222222222222222222222222222222222222222222222222222222222222222222222222222222222222222222222",
"22222222222222222222222222222222222222222222222222222222222222222222222222222222222222222222222222222222222222222222222222222222",
"22222222222222222222222222222222222222222222222222222222222222222222222222222222222222222222222222222222222222222222222222222222",
"22222222222222222222222222222222222222222222222222222222222222222222222222222222222222222222222222222222222222222222222222222222",
"22222222222222222222222222222222222222222222222222222222222222222222222222222222222222222222222222222222222222222222222222222222",
"22222222222222222222222222222222222222222222222222222222222222222222222222222222222222222222222222222222222222222222222222222222",
"22222222222222222222222222222222222222222222222222222222222222222222222222222222222222222222222222222222222222222222222222222222",
"22222222222222222222222222222222222222222222222222222222222222222222222222222222222222222222222222222222222222222222222222222222",
"22222222222222222222222222222222222222222222222222222222222222222222222222222222222222222222222222222222222222222222222222222222",
"22222222222222222222222222222222222222222222222222222222222222222222222222222222222222222222222222222222222222222222222222222222",
"22222222222222222222222222222222222222222222222222222222222222222222222222222222222222222222222222222222222222222222222222222222",
"22222222222222222222222222222222222222222222222222222222222222222222222222222222222222222222222222222222222222222222222222222222",
"22222222222222222222222222222222222222222222222222222222222222222222222222222222222222222222222222222222222222222222222222222222",
"22222222222222222222222222222222222222222222222222222222222222222222222222222222222222222222222222222222222222222222222222222222",
"22222222222222222222222222222222222222222222222222222222222222222222222222222222222222222222222222222222222222222222222222222222",
"22222222222222222222222222222222222222222222222222222222222222222222222222222222222222222222222222222222222222222222222222222222",
"22222222222222222222222222222222222222222222222222222222222222222222222222222222222222222222222222222222222222222222222222222222",
"22222222222222222222222222222222222222222222222222222222222222222222222222222222222222222222222222222222222222222222222222222222",
"22222222222222222222222222222222222222222222222222222222222222222222222222222222222222222222222222222222222222222222222222222222",
"22222222222222222222222222222222222222222222222222222222222222222222222222222222222222222222222222222222222222222222222222222222",
"22222222222222222222222222222222222222222222222222222222222222222222222222222222222222222222222222222222222222222222222222222222",
"22222222222222222222222222222222222222222222222222222222222222222222222222222222222222222222222222222222222222222222222222222222",
"22222222222222222222222222222222222222222222222222222222222222222222222222222222222222222222222222222222222222222222222222222222",
"22222222222222222222222222222222222222222222222222222222222222222222222222222222222222222222222222222222222222222222222222222222",
"22222222222222222222222222222222222222222222222222222222222222222222222222222222222222222222222222222222222222222222222222222222",
"22222222222222222222222222222222222222222222222222222222222222222222222222222222222222222222222222222222222222222222222222222222",
"22222222222222222222222222222222222222222222222222222222222222222222222222222222222222222222222222222222222222222222222222222222",
"22222222222222222222222222222222222222222222222222222222222222222222222222222222222222222222222222222222222222222222222222222222",
"22222222222222222222222222222222222222222222222222222222222222222222222222222222222222222222222222222222222222222222222222222222",
"22222222222222222222222222222222222222222222222222222222222222222222222222222222222222222222222222222222222222222222222222222222",
"22222222222222222222222222222222222222222222222222222222222222222222222222222222222222222222222222222222222222222222222222222222",
"222222                          ..@$*;!^[22222222222222222222222222222222........................++@#%*;'{_122222222222222222222",
"222222                                   .={|2222222222222222222222222222                                   @;]12222222222222222",
"222222                                       =_22222222222222222222222222                                       =_22222222222222",
"222222                                         *[222222222222222222222222                                         &<222222222222",
"222222                                           {22222222222222222222222                                           !22222222222",
"222222                                            '2222222222222222222222                                            ;2222222222",
"222222                                             !222222222222222222222                                             ,222222222",
"222222                                              :22222222222222222222                                              /22222222",
"222222                                              $22222222222222222222                                              @22222222",
"222222                                               ^2222222222222222222                                               {2222222",
"222222                                               &2222222222222222222                                               %2222222",
"222222                                                |222222222222222222               #22222222221:!#                  }222222",
"222222               #222222221}(~&                   ]222222222222222222               #22222222222222!                 ]222222",
"222222               #2222222222222[&                 >222222222222222222               #222222222222222{                '222222",
"222222               #222222222222222=                &222222222222222222               #2222222222222222&               =222222",
"222222               #2222222222222222+               @222222222222222222               #2222222222222222^               &222222",
"222222               #2222222222222222!               .222222222222222222               #2222222222222222}               $222222",
"222222               #2222222222222222<                222222222222222222               #22222222222222222               $222222",
"222222               #22222222222222222               .222222222222222222               #22222222222222222               &222222",
"222222               #22222222222222222+              @222222222222222222               #2222222222222222}               -222222",
"222222               #22222222222222222#              $222222222222222222               #2222222222222222^               !222222",
"222222               #22222222222222222+              =222222222222222222               #2222222222222222&               (222222",
"222222               #22222222222222222               )222222222222222222               #222222222222222]               .2222222",
"222222               #2222222222222222<               (222222222222222222               #22222222222222~                ,2222222",
"222222               #2222222222222222!              .2222222222222222222               #22222222221:!#                 |2222222",
"222222               #2222222222222222+              >2222222222222222222                                              !22222222",
"222222               #222222222222222-               <2222222222222222222                                             =222222222",
"222222               #2222222222222}*               >22222222222222222222                                            =2222222222",
"222222               #2222222221:{*                @122222222222222222222                                           !22222222222",
"222222                ........                    .<222222222222222222222                                         ;}222222222222",
"222222                                           .(2222222222222222222222                                         .><22222222222",
"222222                                          #[22222222222222222222222                                            ;|222222222",
"222222                                         '2222222222222222222222222                                             .(22222222",
"222222                                      .>}22222222222222222222222222                                               ]2222222",
"222222                                     &}2222222222222222222222222222                                                (222222",
"222222                                       >}22222222222222222222222222                ..........                      .}22222",
"222222                                        .]2222222222222222222222222               #222222222222|('@                 =22222",
"222222                                          '222222222222222222222222               #2222222222222222^+                _2222",
"222222                                           '22222222222222222222222               #22222222222222222}@               -2222",
"222222                                            ]2222222222222222222222               #222222222222222222<                1222",
"222222               #222222|()#                  .}222222222222222222222               #2222222222222222222>               ^222",
"222222               #2222222222]+                 %222222222222222222222               #2222222222222222222_               '222",
"222222               #22222222222}#                 {22222222222222222222               #22222222222222222222               &222",
"222222               #222222222222|@                +12222222222222222222               #22222222222222222222+              #222",
"222222               #2222222222222:                 '2222222222222222222               #22222222222222222222#              +222",
"222222               #22222222222222'                .|222222222222222222               #22222222222222222222+               222",
"222222               #222222222222222@                ,222222222222222222               #22222222222222222222               .222",
"222222               #222222222222222]                .122222222222222222               #2222222222222222222(               +222",
"222222               #2222222222222222$                '22222222222222222               #2222222222222222222;               $222",
"222222               #2222222222222222/                .12222222222222222               #222222222222222222<                -222",
"222222               #22222222222222222$                )2222222222222222               #22222222222222222}@                !222",
"222222               #22222222222222222/                +2222222222222222               #2222222222222222]+                 :222",
"222222               #222222222222222222$                !222222222222222               #222222222222|('@                  +2222",
"222222               #222222222222222222/                +222222222222222                ..........                        '2222",
"222222               #2222222222222222222$                ~22222222222222                                                 .|2222",
"222222               #2222222222222222222/                +22222222222222                                                 )22222",
"222222               #22222222222222222222$                {2222222222222                                                %222222",
"222222               #22222222222222222222/                @2222222222222                                               #|222222",
"222222               #222222222222222222222%                ]222222222222                                              #}2222222",
"222222               #222222222222222222222/                #222222222222                                             -122222222",
"222222               #2222222222222222222222%                ^22222222222                                           #/2222222222",
"222222               #2222222222222222222222(                #22222222222                                         &^222222222222",
"222222               #22222222222222222222222%                ^2222222222                                     .*~}22222222222222",
"222222               #22222222222222222222222(                $2222222222                             .@$&;)^[222222222222222222",
"22222222222222222222222222222222222222222222222222222222222222222222222222222222222222222222222222222222222222222222222222222222",
"22222222222222222222222222222222222222222222222222222222222222222222222222222222222222222222222222222222222222222222222222222222",
"22222222222222222222222222222222222222222222222222222222222222222222222222222222222222222222222222222222222222222222222222222222",
"22222222222222222222222222222222222222222222222222222222222222222222222222222222222222222222222222222222222222222222222222222222",
"22222222222222222222222222222222222222222222222222222222222222222222222222222222222222222222222222222222222222222222222222222222",
"22222222222222222222222222222222222222222222222222222222222222222222222222222222222222222222222222222222222222222222222222222222",
"22222222222222222222222222222222222222222222222222222222222222222222222222222222222222222222222222222222222222222222222222222222",
"22222222222222222222222222222222222222222222222222222222222222222222222222222222222222222222222222222222222222222222222222222222",
"22222222222222222222222222222222222222222222222222222222222222222222222222222222222222222222222222222222222222222222222222222222",
"22222222222222222222222222222222222222222222222222222222222222222222222222222222222222222222222222222222222222222222222222222222",
"22222222222222222222222222222222222222222222222222222222222222222222222222222222222222222222222222222222222222222222222222222222",
"22222222222222222222222222222222222222222222222222222222222222222222222222222222222222222222222222222222222222222222222222222222",
"22222222222222222222222222222222222222222222222222222222222222222222222222222222222222222222222222222222222222222222222222222222",
"22222222222222222222222222222222222222222222222222222222222222222222222222222222222222222222222222222222222222222222222222222222",
"22222222222222222222222222222222222222222222222222222222222222222222222222222222222222222222222222222222222222222222222222222222",
"22222222222222222222222222222222222222222222222222222222222222222222222222222222222222222222222222222222222222222222222222222222",
"22222222222222222222222222222222222222222222222222222222222222222222222222222222222222222222222222222222222222222222222222222222",
"22222222222222222222222222222222222222222222222222222222222222222222222222222222222222222222222222222222222222222222222222222222",
"22222222222222222222222222222222222222222222222222222222222222222222222222222222222222222222222222222222222222222222222222222222",
"22222222222222222222222222222222222222222222222222222222222222222222222222222222222222222222222222222222222222222222222222222222",
"22222222222222222222222222222222222222222222222222222222222222222222222222222222222222222222222222222222222222222222222222222222",
"22222222222222222222222222222222222222222222222222222222222222222222222222222222222222222222222222222222222222222222222222222222",
"22222222222222222222222222222222222222222222222222222222222222222222222222222222222222222222222222222222222222222222222222222222",
"22222222222222222222222222222222222222222222222222222222222222222222222222222222222222222222222222222222222222222222222222222222",
"22222222222222222222222222222222222222222222222222222222222222222222222222222222222222222222222222222222222222222222222222222222",
"22222222222222222222222222222222222222222222222222222222222222222222222222222222222222222222222222222222222222222222222222222222",
"22222222222222222222222222222222222222222222222222222222222222222222222222222222222222222222222222222222222222222222222222222222",
"22222222222222222222222222222222222222222222222222222222222222222222222222222222222222222222222222222222222222222222222222222222",
"22222222222222222222222222222222222222222222222222222222222222222222222222222222222222222222222222222222222222222222222222222222"};
